# xmcd CD database file
#
# Track frame offsets:
#	150
#	14565
#	33374
#	50147
#	65774
#	81205
#	101745
#	124295
#	147206
#
# Disc length: 2246 seconds
#
# Revision: 1
# Processed by: cddbd v1.5PL3 Copyright (c) Steve Scherf et al.
# Submitted via: CDex 1.50
#
DISCID=8408c409
DTITLE=Workshop - Rejuvenated
DYEAR=2001
DGENRE=Jazz
TTITLE0=Here We Go Now
TTITLE1=Hug For Daddy
TTITLE2=Money Don't Make The Man
TTITLE3=Nuts and Bolts
TTITLE4=Sign of the Times
TTITLE5=Whistle Trix
TTITLE6=Globetrotters
TTITLE7=Don't Get Out Much Anymore!
TTITLE8=Fools Gold
EXTD=YEAR: 2001
EXTT0=
EXTT1=
EXTT2=
EXTT3=
EXTT4=
EXTT5=
EXTT6=
EXTT7=
EXTT8=
PLAYORDER=
